<?xml version="1.0" standalone="no"?>
<!DOCTYPE svg PUBLIC "-//W3C//DTD SVG 20010904//EN"
 "http://www.w3.org/TR/2001/REC-SVG-20010904/DTD/svg10.dtd">
<svg version="1.0" xmlns="http://www.w3.org/2000/svg"
 width="27.000000pt" height="23.000000pt" viewBox="0 0 27.000000 23.000000"
 preserveAspectRatio="xMidYMid meet">

<g transform="translate(0.000000,23.000000) scale(0.100000,-0.100000)"
fill="#000000" stroke="none">
<path d="M0 193 l0 -37 16 23 c9 13 31 29 48 37 l31 13 -47 1 -48 0 0 -37z"/>
<path d="M205 215 c17 -9 38 -25 48 -36 17 -21 17 -21 17 15 l0 36 -47 0 -48
0 30 -15z"/>
<path d="M0 78 c0 -31 5 -38 33 -51 17 -8 66 -18 107 -22 l75 -7 -19 21 c-13
15 -31 21 -59 21 -46 0 -102 24 -122 54 -14 20 -15 19 -15 -16z"/>
<path d="M242 77 c-12 -13 -22 -35 -22 -50 0 -22 5 -27 25 -27 23 0 25 3 25
50 0 28 -1 50 -3 50 -2 0 -13 -10 -25 -23z"/>
</g>
</svg>
