<?xml version="1.0" standalone="no"?>
<!DOCTYPE svg PUBLIC "-//W3C//DTD SVG 20010904//EN"
 "http://www.w3.org/TR/2001/REC-SVG-20010904/DTD/svg10.dtd">
<svg version="1.0" xmlns="http://www.w3.org/2000/svg"
 width="24.000000pt" height="25.000000pt" viewBox="0 0 24.000000 25.000000"
 preserveAspectRatio="xMidYMid meet">

<g transform="translate(0.000000,25.000000) scale(0.100000,-0.100000)"
fill="#000000" stroke="none">
<path d="M0 237 c0 -13 39 -41 47 -34 2 3 -2 14 -9 26 -14 23 -38 28 -38 8z"/>
<path d="M93 232 c10 -10 17 -28 17 -38 0 -20 48 -74 66 -74 5 0 21 -7 37 -14
l27 -15 0 80 0 79 -39 0 c-37 0 -40 -2 -43 -32 -4 -33 -8 -29 -23 17 -2 8 -16
15 -31 15 -26 0 -26 -1 -11 -18z"/>
<path d="M0 147 c0 -21 8 -30 33 -40 39 -17 62 -43 71 -79 5 -23 12 -28 38
-28 29 0 30 1 15 18 -10 10 -17 25 -17 33 0 19 -71 89 -90 89 -7 0 -22 7 -32
17 -17 15 -18 15 -18 -10z"/>
<path d="M197 53 c-5 -8 26 -53 37 -53 3 0 6 6 6 13 0 18 -36 51 -43 40z"/>
</g>
</svg>
